<svg width="32" height="14" viewBox="0 0 32 14" fill="none" xmlns="http://www.w3.org/2000/svg">
<path d="M6.566 2.789C6.50067 2.89633 6.433 2.97567 6.363 3.027C6.29767 3.07367 6.21133 3.097 6.104 3.097C6.00133 3.097 5.88933 3.062 5.768 2.992C5.65133 2.91733 5.51367 2.838 5.355 2.754C5.19633 2.67 5.01433 2.593 4.809 2.523C4.60367 2.44833 4.36333 2.411 4.088 2.411C3.60267 2.411 3.23867 2.52067 2.996 2.74C2.75333 2.95467 2.632 3.237 2.632 3.587C2.632 3.811 2.69733 3.99767 2.828 4.147C2.96333 4.29167 3.13833 4.41767 3.353 4.525C3.57233 4.63233 3.81967 4.728 4.095 4.812C4.37033 4.896 4.65267 4.98933 4.942 5.092C5.23133 5.19 5.51367 5.30667 5.789 5.442C6.06433 5.57733 6.30933 5.74767 6.524 5.953C6.74333 6.15833 6.91833 6.41033 7.049 6.709C7.18433 7.003 7.252 7.36233 7.252 7.787C7.252 8.249 7.17033 8.683 7.007 9.089C6.84833 9.49033 6.61733 9.84267 6.314 10.146C6.01067 10.4447 5.635 10.6803 5.187 10.853C4.74367 11.0257 4.23967 11.112 3.675 11.112C3.353 11.112 3.031 11.0793 2.709 11.014C2.39167 10.9487 2.08367 10.8577 1.785 10.741C1.491 10.6243 1.21333 10.4843 0.952 10.321C0.690667 10.1577 0.462 9.97567 0.266 9.775L0.882 8.781C0.933333 8.70633 1.001 8.64567 1.085 8.599C1.169 8.54767 1.25767 8.522 1.351 8.522C1.477 8.522 1.61 8.56867 1.75 8.662C1.89 8.75533 2.051 8.858 2.233 8.97C2.415 9.082 2.625 9.18467 2.863 9.278C3.10567 9.37133 3.395 9.418 3.731 9.418C4.221 9.418 4.599 9.306 4.865 9.082C5.13567 8.858 5.271 8.52433 5.271 8.081C5.271 7.82433 5.20333 7.61667 5.068 7.458C4.93733 7.29933 4.76467 7.16633 4.55 7.059C4.33533 6.95167 4.09033 6.86067 3.815 6.786C3.53967 6.70667 3.25733 6.62033 2.968 6.527C2.67867 6.43367 2.39633 6.32167 2.121 6.191C1.84567 6.06033 1.60067 5.88767 1.386 5.673C1.17133 5.45833 0.996333 5.19233 0.861 4.875C0.730333 4.55767 0.665 4.16333 0.665 3.692C0.665 3.314 0.739667 2.94767 0.889 2.593C1.03833 2.23833 1.25767 1.92333 1.547 1.648C1.83633 1.37267 2.191 1.151 2.611 0.982999C3.03567 0.814999 3.521 0.730999 4.067 0.730999C4.67833 0.730999 5.243 0.826666 5.761 1.018C6.28367 1.20467 6.72467 1.466 7.084 1.802L6.566 2.789ZM10.3452 4.49C10.4806 4.36867 10.6206 4.259 10.7652 4.161C10.9146 4.05833 11.0709 3.972 11.2342 3.902C11.4022 3.82733 11.5796 3.77133 11.7662 3.734C11.9576 3.692 12.1629 3.671 12.3822 3.671C12.7742 3.671 13.1219 3.73867 13.4252 3.874C13.7286 4.00933 13.9829 4.19833 14.1882 4.441C14.3982 4.68367 14.5546 4.973 14.6572 5.309C14.7646 5.645 14.8182 6.01367 14.8182 6.415V11H12.8932V6.415C12.8932 6.01367 12.7999 5.70333 12.6132 5.484C12.4266 5.26 12.1512 5.148 11.7872 5.148C11.5166 5.148 11.2622 5.20633 11.0242 5.323C10.7862 5.43967 10.5599 5.603 10.3452 5.813V11H8.41323V0.563H10.3452V4.49ZM19.6116 3.671C20.1529 3.671 20.6453 3.75733 21.0886 3.93C21.5319 4.10267 21.9123 4.35 22.2296 4.672C22.5469 4.98933 22.7919 5.37667 22.9646 5.834C23.1373 6.29133 23.2236 6.807 23.2236 7.381C23.2236 7.955 23.1373 8.473 22.9646 8.935C22.7919 9.39233 22.5469 9.782 22.2296 10.104C21.9123 10.426 21.5319 10.6733 21.0886 10.846C20.6453 11.0187 20.1529 11.105 19.6116 11.105C19.0656 11.105 18.5686 11.0187 18.1206 10.846C17.6773 10.6733 17.2969 10.426 16.9796 10.104C16.6623 9.782 16.4149 9.39233 16.2376 8.935C16.0649 8.473 15.9786 7.955 15.9786 7.381C15.9786 6.807 16.0649 6.29133 16.2376 5.834C16.4149 5.37667 16.6623 4.98933 16.9796 4.672C17.2969 4.35 17.6773 4.10267 18.1206 3.93C18.5686 3.75733 19.0656 3.671 19.6116 3.671ZM19.6116 9.656C20.1623 9.656 20.5706 9.467 20.8366 9.089C21.1026 8.70633 21.2356 8.13933 21.2356 7.388C21.2356 6.64133 21.1026 6.079 20.8366 5.701C20.5706 5.31833 20.1623 5.127 19.6116 5.127C19.0469 5.127 18.6316 5.31833 18.3656 5.701C18.0996 6.079 17.9666 6.64133 17.9666 7.388C17.9666 8.13933 18.0996 8.70633 18.3656 9.089C18.6316 9.467 19.0469 9.656 19.6116 9.656ZM26.3687 9.096C26.5507 9.306 26.7467 9.453 26.9567 9.537C27.1713 9.621 27.4 9.663 27.6427 9.663C27.876 9.663 28.0883 9.61867 28.2797 9.53C28.471 9.44133 28.6343 9.30367 28.7697 9.117C28.9097 8.92567 29.017 8.683 29.0917 8.389C29.1663 8.095 29.2037 7.745 29.2037 7.339C29.2037 6.93767 29.171 6.597 29.1057 6.317C29.045 6.037 28.9563 5.81067 28.8397 5.638C28.7277 5.46533 28.59 5.34167 28.4267 5.267C28.2633 5.18767 28.0813 5.148 27.8807 5.148C27.54 5.148 27.253 5.21567 27.0197 5.351C26.791 5.48167 26.574 5.67533 26.3687 5.932V9.096ZM26.2567 4.728C26.4013 4.56933 26.5553 4.42467 26.7187 4.294C26.882 4.15867 27.057 4.04433 27.2437 3.951C27.4303 3.853 27.631 3.77833 27.8457 3.727C28.0603 3.671 28.2937 3.643 28.5457 3.643C28.933 3.643 29.2877 3.727 29.6097 3.895C29.9363 4.05833 30.2163 4.29867 30.4497 4.616C30.683 4.92867 30.865 5.31367 30.9957 5.771C31.1263 6.22833 31.1917 6.751 31.1917 7.339C31.1917 7.88033 31.117 8.382 30.9677 8.844C30.823 9.30133 30.6153 9.698 30.3447 10.034C30.074 10.37 29.7473 10.6337 29.3647 10.825C28.9867 11.0117 28.5643 11.105 28.0977 11.105C27.7057 11.105 27.372 11.0467 27.0967 10.93C26.826 10.8133 26.5833 10.6547 26.3687 10.454V13.331H24.4367V3.783H25.6267C25.8693 3.783 26.0303 3.895 26.1097 4.119L26.2567 4.728Z" fill="white"/>
</svg>
